# xmcd
#
# Track frame offsets: 
#        150
#        24913
#        56023
#        84343
#        115152
#        140443
#        165037
#        195253
#        221069
#        245090
#        274899
#        297525
#
# Disc length: 4287 seconds
#
# Revision: 0
# Processed by: cddbd v1.5.2PL0 Copyright (c) Steve Scherf et al.
# Submitted via: ExactAudioCopy v0.99pb5
#
DISCID=a710bd0c
DTITLE=Moonbeam - Around The World
DYEAR=2010
DGENRE=Electronic
TTITLE0=Life Tree
TTITLE1=Song For A Girl
TTITLE2=Through A Fog
TTITLE3=Look Around
TTITLE4=Breathless
TTITLE5=Evelyn
TTITLE6=Save The World
TTITLE7=Elephant Ride
TTITLE8=Closer To Me
TTITLE9=Thr Lilt
TTITLE10=Forever Sun
TTITLE11=Falling Stars
EXTD=
EXTT0=
EXTT1=
EXTT2=
EXTT3=
EXTT4=
EXTT5=
EXTT6=
EXTT7=
EXTT8=
EXTT9=
EXTT10=
EXTT11=
PLAYORDER=
